#!OML:ASF E:\motion texture\Top Level 1\Subject 1\Session 1\male.ASF
:FULLY-SPECIFIED
:DEGREES
333
root -15.7616 18.0699 4.50062 74.555 -83.13 -70.1527
lowerback -1.21586 -1.28188 4.45544
upperback -5.03608 -1.68518 4.81464
thorax -4.51366 -0.999593 2.55199
lowerneck -15.9189 -5.6045 -6.13701
upperneck 18.701 -6.90082 2.58727
head 8.77929 -3.46738 1.0206
rclavicle -2.38542e-015 -8.74653e-015
rhumerus -8.82039 -46.689 -20.7371
rradius 56.051
rwrist -12.117
rhand -12.4218 -25.917
rfingers 7.12502
rthumb 13.6505 -55.4494
lclavicle -2.38542e-015 -8.74653e-015
lhumerus -11.215 41.3832 33.5704
lradius 43.1401
lwrist 9.49865
lhand -13.1369 14.9504
lfingers 7.12502
lthumb 12.9612 44.5278
rfemur -19.1638 1.73715 26.7466
rtibia 18.5408
rfoot -0.731559 -8.15998
rtoes 21.5798
lfemur -4.72226 -4.79336 -9.67826
ltibia 49.5145
lfoot 16.0997 -5.20675
ltoes -8.19159
334
root -15.9063 18.0894 4.47924 75.803 -82.8258 -71.4777
lowerback -1.14413 -1.22113 4.77343
upperback -4.98541 -1.59745 4.87894
thorax -4.51097 -0.968081 2.44059
lowerneck -15.7526 -5.60908 -6.17101
upperneck 18.62 -6.94207 2.74206
head 8.73066 -3.47528 1.0779
rclavicle -1.42131e-014 8.11041e-014
rhumerus -7.56726 -47.9348 -21.0282
rradius 51.7519
rwrist -11.8168
rhand -11.935 -25.8174
rfingers 7.12502
rthumb 14.1197 -55.3176
lclavicle -1.42131e-014 8.11041e-014
lhumerus -10.5705 41.9933 33.4142
lradius 39.2962
lwrist 9.84481
lhand -12.6547 15.4189
lfingers 7.12502
lthumb 13.426 44.9663
rfemur -18.3294 1.80574 27.2947
rtibia 18.1679
rfoot -1.05298 -8.02079
rtoes 21.8238
lfemur -5.80679 -4.3615 -9.16912
ltibia 51.1099
lfoot 15.3299 -4.88746
ltoes -8.62632
335
root -16.0494 18.1084 4.45924 76.9121 -82.5933 -72.6639
lowerback -1.07008 -1.16733 5.02071
upperback -4.93085 -1.51918 4.92349
thorax -4.50306 -0.938166 2.34802
lowerneck -15.5996 -5.60813 -6.19762
upperneck 18.5607 -6.97484 2.88439
head 8.69082 -3.48018 1.13029
rclavicle 6.75868e-015 -6.04305e-014
rhumerus -6.19481 -49.3374 -21.4316
rradius 47.4157
rwrist -11.6117
rhand -11.4407 -25.7604
rfingers 7.12502
rthumb 14.5959 -55.2268
lclavicle 6.75868e-015 -6.04305e-014
lhumerus -10.0278 42.8033 33.2364
lradius 35.6624
lwrist 10.2914
lhand -12.0886 15.9289
lfingers 7.12502
lthumb 13.9717 45.4394
rfemur -17.5055 1.86161 27.7475
rtibia 17.8011
rfoot -1.3672 -7.86074
rtoes 22.0223
lfemur -6.8882 -3.9001 -8.76602
ltibia 52.6128
lfoot 14.1451 -4.49373
ltoes -9.31539
336
root -16.1911 18.1269 4.44017 77.9295 -82.4286 -73.7537
lowerback -0.993838 -1.12064 5.19809
upperback -4.87542 -1.45057 4.95036
thorax -4.49323 -0.910044 2.27606
lowerneck -15.464 -5.59957 -6.22059
upperneck 18.5204 -6.99616 3.02021
head 8.65968 -3.48015 1.1807
rclavicle 6.16232e-015 -3.18055e-015
rhumerus -4.71239 -50.9291 -21.9594
rradius 43.0784
rwrist -11.3654
rhand -10.9722 -25.7502
rfingers 7.12502
rthumb 15.0473 -55.1834
lclavicle 6.16232e-015 -3.18055e-015
lhumerus -9.59407 43.9362 33.0289
lradius 32.2444
lwrist 10.5258
lhand -11.5556 16.4547
lfingers 7.12502
lthumb 14.4853 45.929
rfemur -16.6989 1.91467 28.1115
rtibia 17.447
rfoot -1.68193 -7.69465
rtoes 22.1849
lfemur -7.96462 -3.41672 -8.45858
ltibia 53.9928
lfoot 12.7609 -4.0461
ltoes -9.93638
337
root -16.3315 18.1447 4.42181 78.8975 -82.3167 -74.7851
lowerback -0.922044 -1.08027 5.32065
upperback -4.82008 -1.39108 4.96311
thorax -4.47932 -0.884119 2.21981
lowerneck -15.3375 -5.58393 -6.23047
upperneck 18.4903 -7.00602 3.13474
head 8.63183 -3.47607 1.22295
rclavicle -9.34288e-015 5.24792e-014
rhumerus -3.12373 -52.7612 -22.6316
rradius 38.776
rwrist -10.8623
rhand -10.6644 -25.7762
rfingers 7.12502
rthumb 15.3437 -55.1869
lclavicle -9.34288e-015 5.24792e-014
lhumerus -9.28809 45.4576 32.7713
lradius 29.061
lwrist 10.2968
lhand -11.0565 16.933
lfingers 7.12502
lthumb 14.966 46.3722
rfemur -15.9105 1.9673 28.4061
rtibia 17.1002
rfoot -1.99024 -7.52595
rtoes 22.2967
lfemur -9.03536 -2.91748 -8.22658
ltibia 55.2278
lfoot 11.3229 -3.58172
ltoes -10.4335
338
root -16.471 18.1617 4.40381 79.8898 -82.2394 -75.8283
lowerback -0.861473 -1.04252 5.40647
upperback -4.7623 -1.33649 4.9666
thorax -4.45536 -0.858948 2.17393
lowerneck -15.2266 -5.56132 -6.23124
upperneck 18.4651 -7.00482 3.23774
head 8.60711 -3.46715 1.26081
rclavicle -4.17448e-015 6.36111e-015
rhumerus -1.4181 -54.9288 -23.4842
rradius 34.5559
rwrist -9.80862
rhand -10.5211 -25.8313
rfingers 7.12502
rthumb 15.4818 -55.2314
lclavicle -4.17448e-015 6.36111e-015
lhumerus -9.12073 47.449 32.449
lradius 26.1375
lwrist 9.39142
lhand -10.7047 17.3533
lfingers 7.12502
lthumb 15.3049 46.767
rfemur -15.1426 2.02203 28.6574
rtibia 16.7588
rfoot -2.28814 -7.35634
rtoes 22.3565
lfemur -10.0973 -2.40546 -8.04317
ltibia 56.3016
lfoot 9.91024 -3.12741
ltoes -10.8537
339
root -16.6096 18.1779 4.38621 80.9703 -82.178 -76.948
lowerback -0.806405 -1.00345 5.48025
upperback -4.70505 -1.28073 4.96335
thorax -4.42847 -0.832693 2.12748
lowerneck -15.1258 -5.5334 -6.2144
upperneck 18.4371 -6.99448 3.3182
head 8.58126 -3.45484 1.28919
rclavicle -1.68967e-015 -1.90833e-014
rhumerus 0.430456 -57.5812 -24.5718
rradius 30.4726
rwrist -7.81111
rhand -10.4497 -25.8688
rfingers 7.12502
rthumb 15.5506 -55.2635
lclavicle -1.68967e-015 -1.90833e-014
lhumerus -9.14189 49.8614 32.0227
lradius 23.5356
lwrist 7.79698
lhand -10.5522 17.745
lfingers 7.12502
lthumb 15.4518 47.1474
rfemur -14.3924 2.0782 28.8899
rtibia 16.4182
rfoot -2.57281 -7.18294
rtoes 22.3509
lfemur -11.1449 -1.88495 -7.88505
ltibia 57.2092
lfoot 8.53965 -2.70278
ltoes -11.284
